<svg xmlns="http://www.w3.org/2000/svg" viewBox="0 0 620 500" fill="none">

  <!-- ===== Floating tech badges around XDR ===== -->
  <!-- Top left of monitor -->
  <rect x="52" y="20" width="68" height="22" rx="11" fill="rgba(13,17,23,0.75)" stroke="#64b5f6" stroke-width="1" stroke-opacity="0.5"/>
  <text x="86" y="35" font-family="monospace" font-size="10" fill="#64b5f6" text-anchor="middle" font-weight="bold">JAVA</text>

  <!-- Top center -->
  <rect x="185" y="4" width="90" height="22" rx="11" fill="rgba(13,17,23,0.75)" stroke="#79c0ff" stroke-width="1" stroke-opacity="0.5"/>
  <text x="230" y="19" font-family="monospace" font-size="10" fill="#79c0ff" text-anchor="middle" font-weight="bold">SPRING BOOT</text>

  <!-- Top right of monitor -->
  <rect x="376" y="10" width="90" height="22" rx="11" fill="rgba(13,17,23,0.75)" stroke="#a5f3c4" stroke-width="1" stroke-opacity="0.5"/>
  <text x="421" y="25" font-family="monospace" font-size="10" fill="#a5f3c4" text-anchor="middle" font-weight="bold">KUBERNETES</text>

  <!-- Far right -->
  <rect x="456" y="60" width="54" height="22" rx="11" fill="rgba(13,17,23,0.75)" stroke="#ffa657" stroke-width="1" stroke-opacity="0.5"/>
  <text x="483" y="75" font-family="monospace" font-size="10" fill="#ffa657" text-anchor="middle" font-weight="bold">AWS</text>

  <!-- Right side lower -->
  <rect x="450" y="148" width="100" height="22" rx="11" fill="rgba(13,17,23,0.75)" stroke="#d2a8ff" stroke-width="1" stroke-opacity="0.5"/>
  <text x="500" y="163" font-family="monospace" font-size="10" fill="#d2a8ff" text-anchor="middle" font-weight="bold">MICROSERVICES</text>

  <!-- Bottom right -->
  <rect x="390" y="240" width="64" height="22" rx="11" fill="rgba(13,17,23,0.75)" stroke="#ff7b72" stroke-width="1" stroke-opacity="0.5"/>
  <text x="422" y="255" font-family="monospace" font-size="10" fill="#ff7b72" text-anchor="middle" font-weight="bold">DOCKER</text>

  <!-- Bottom center -->
  <rect x="208" y="252" width="44" height="22" rx="11" fill="rgba(13,17,23,0.75)" stroke="#ffa657" stroke-width="1" stroke-opacity="0.5"/>
  <text x="230" y="267" font-family="monospace" font-size="10" fill="#ffa657" text-anchor="middle" font-weight="bold">CSS</text>

  <!-- Bottom left of monitor -->
  <rect x="100" y="244" width="36" height="22" rx="11" fill="rgba(13,17,23,0.75)" stroke="#79c0ff" stroke-width="1" stroke-opacity="0.5"/>
  <text x="118" y="259" font-family="monospace" font-size="10" fill="#79c0ff" text-anchor="middle" font-weight="bold">JS</text>

  <!-- Left side -->
  <rect x="42" y="150" width="54" height="22" rx="11" fill="rgba(13,17,23,0.75)" stroke="#a5f3c4" stroke-width="1" stroke-opacity="0.5"/>
  <text x="69" y="165" font-family="monospace" font-size="10" fill="#a5f3c4" text-anchor="middle" font-weight="bold">HTML</text>

  <!-- Left side lower -->
  <rect x="50" y="210" width="46" height="22" rx="11" fill="rgba(13,17,23,0.75)" stroke="#d2a8ff" stroke-width="1" stroke-opacity="0.5"/>
  <text x="73" y="225" font-family="monospace" font-size="10" fill="#d2a8ff" text-anchor="middle" font-weight="bold">GIT</text>

  <!-- Connector dots (subtle lines from badge to screen edge) -->
  <line x1="120" y1="31" x2="127" y2="38" stroke="#64b5f6" stroke-width="0.8" stroke-opacity="0.3" stroke-dasharray="3 3"/>
  <line x1="230" y1="26" x2="230" y2="35" stroke="#79c0ff" stroke-width="0.8" stroke-opacity="0.3" stroke-dasharray="3 3"/>
  <line x1="420" y1="32" x2="412" y2="38" stroke="#a5f3c4" stroke-width="0.8" stroke-opacity="0.3" stroke-dasharray="3 3"/>
  <line x1="456" y1="71" x2="445" y2="80" stroke="#ffa657" stroke-width="0.8" stroke-opacity="0.3" stroke-dasharray="3 3"/>
  <line x1="450" y1="159" x2="441" y2="155" stroke="#d2a8ff" stroke-width="0.8" stroke-opacity="0.3" stroke-dasharray="3 3"/>
  <line x1="408" y1="251" x2="400" y2="243" stroke="#ff7b72" stroke-width="0.8" stroke-opacity="0.3" stroke-dasharray="3 3"/>
  <line x1="230" y1="252" x2="230" y2="245" stroke="#ffa657" stroke-width="0.8" stroke-opacity="0.3" stroke-dasharray="3 3"/>
  <line x1="118" y1="244" x2="120" y2="237" stroke="#79c0ff" stroke-width="0.8" stroke-opacity="0.3" stroke-dasharray="3 3"/>
  <line x1="96" y1="161" x2="116" y2="155" stroke="#a5f3c4" stroke-width="0.8" stroke-opacity="0.3" stroke-dasharray="3 3"/>
  <line x1="96" y1="221" x2="116" y2="218" stroke="#d2a8ff" stroke-width="0.8" stroke-opacity="0.3" stroke-dasharray="3 3"/>

  <!-- ===== Pro Display XDR ===== -->
  <!-- Monitor outer bezel (no camera notch — XDR has no camera) -->
  <rect x="110" y="30" width="330" height="220" rx="16" fill="#1c1c1e"/>
  <!-- Screen -->
  <rect x="121" y="41" width="308" height="200" rx="9" fill="#0d1117"/>
  <!-- Thin inner border -->
  <rect x="122" y="42" width="306" height="198" rx="8" fill="none" stroke="#2a2a2e" stroke-width="1"/>

  <!-- Code on screen — GitHub dark theme colors -->
  <!-- Line numbers col -->
  <rect x="136" y="58" width="14" height="5" rx="2" fill="#3a3a4a" opacity="0.5"/>
  <rect x="136" y="70" width="14" height="5" rx="2" fill="#3a3a4a" opacity="0.5"/>
  <rect x="136" y="82" width="14" height="5" rx="2" fill="#3a3a4a" opacity="0.5"/>
  <rect x="136" y="94" width="14" height="5" rx="2" fill="#3a3a4a" opacity="0.5"/>
  <rect x="136" y="106" width="14" height="5" rx="2" fill="#3a3a4a" opacity="0.5"/>
  <rect x="136" y="118" width="14" height="5" rx="2" fill="#3a3a4a" opacity="0.5"/>
  <rect x="136" y="130" width="14" height="5" rx="2" fill="#3a3a4a" opacity="0.5"/>
  <rect x="136" y="142" width="14" height="5" rx="2" fill="#3a3a4a" opacity="0.5"/>
  <rect x="136" y="154" width="14" height="5" rx="2" fill="#3a3a4a" opacity="0.5"/>
  <rect x="136" y="166" width="14" height="5" rx="2" fill="#3a3a4a" opacity="0.5"/>
  <rect x="136" y="178" width="14" height="5" rx="2" fill="#3a3a4a" opacity="0.5"/>
  <rect x="136" y="190" width="14" height="5" rx="2" fill="#3a3a4a" opacity="0.5"/>
  <rect x="136" y="202" width="14" height="5" rx="2" fill="#3a3a4a" opacity="0.5"/>
  <rect x="136" y="214" width="14" height="5" rx="2" fill="#3a3a4a" opacity="0.5"/>
  <!-- Code tokens -->
  <rect x="157" y="58" width="48" height="5" rx="2" fill="#ff7b72"/>
  <rect x="208" y="58" width="26" height="5" rx="2" fill="#d2a8ff"/>
  <rect x="237" y="58" width="20" height="5" rx="2" fill="#ffa657"/>
  <rect x="165" y="70" width="36" height="5" rx="2" fill="#79c0ff"/>
  <rect x="204" y="70" width="55" height="5" rx="2" fill="#a5f3c4"/>
  <rect x="262" y="70" width="28" height="5" rx="2" fill="#ffa657"/>
  <rect x="165" y="82" width="62" height="5" rx="2" fill="#79c0ff"/>
  <rect x="230" y="82" width="32" height="5" rx="2" fill="#ff7b72"/>
  <rect x="173" y="94" width="44" height="5" rx="2" fill="#a5f3c4"/>
  <rect x="220" y="94" width="50" height="5" rx="2" fill="#d2a8ff"/>
  <rect x="173" y="106" width="78" height="5" rx="2" fill="#79c0ff"/>
  <rect x="254" y="106" width="22" height="5" rx="2" fill="#ffa657"/>
  <rect x="165" y="118" width="52" height="5" rx="2" fill="#ff7b72"/>
  <rect x="220" y="118" width="38" height="5" rx="2" fill="#a5f3c4"/>
  <rect x="173" y="130" width="85" height="5" rx="2" fill="#79c0ff"/>
  <rect x="165" y="142" width="42" height="5" rx="2" fill="#d2a8ff"/>
  <rect x="210" y="142" width="60" height="5" rx="2" fill="#ffa657"/>
  <rect x="173" y="154" width="55" height="5" rx="2" fill="#a5f3c4"/>
  <rect x="231" y="154" width="35" height="5" rx="2" fill="#ff7b72"/>
  <rect x="165" y="166" width="70" height="5" rx="2" fill="#79c0ff"/>
  <rect x="238" y="166" width="40" height="5" rx="2" fill="#d2a8ff"/>
  <rect x="173" y="178" width="38" height="5" rx="2" fill="#ffa657"/>
  <rect x="214" y="178" width="55" height="5" rx="2" fill="#a5f3c4"/>
  <rect x="165" y="190" width="80" height="5" rx="2" fill="#79c0ff"/>
  <rect x="173" y="202" width="48" height="5" rx="2" fill="#ff7b72"/>
  <rect x="224" y="202" width="32" height="5" rx="2" fill="#d2a8ff"/>
  <rect x="165" y="214" width="58" height="5" rx="2" fill="#a5f3c4"/>
  <!-- cursor blink -->
  <rect x="226" y="214" width="7" height="9" rx="1" fill="#58a6ff" opacity="0.9"/>

  <!-- XDR stand arm -->
  <rect x="258" y="250" width="20" height="36" rx="3" fill="#2a2a2e"/>
  <!-- Stand base -->
  <rect x="228" y="282" width="80" height="10" rx="5" fill="#1c1c1e"/>
  <ellipse cx="268" cy="292" rx="40" ry="6" fill="#2a2a2e" opacity="0.4"/>

  <!-- ===== Mac Pro 2019 Tower ===== -->
  <!-- Main body -->
  <rect x="462" y="95" width="92" height="190" rx="14" fill="#1c1c1e"/>
  <!-- Top rounded cap -->
  <rect x="462" y="95" width="92" height="22" rx="12" fill="#252528"/>
  <rect x="462" y="107" width="92" height="10" fill="#252528"/>
  <!-- Bottom rounded cap -->
  <rect x="462" y="263" width="92" height="22" rx="12" fill="#252528"/>
  <rect x="462" y="263" width="92" height="10" fill="#252528"/>

  <!-- Top handle — the iconic Mac Pro 2019 stainless steel handle -->
  <path d="M490 95 Q490 72 508 72 Q526 72 526 95" stroke="#3a3a3e" stroke-width="7" fill="none" stroke-linecap="round"/>
  <path d="M490 95 Q490 74 508 74 Q526 74 526 95" stroke="#555560" stroke-width="4" fill="none" stroke-linecap="round"/>

  <!-- Cheese grater oval pattern -->
  <!-- Row 1 -->
  <ellipse cx="484" cy="135" rx="6" ry="8" fill="none" stroke="#383840" stroke-width="1.5"/>
  <ellipse cx="502" cy="135" rx="6" ry="8" fill="none" stroke="#383840" stroke-width="1.5"/>
  <ellipse cx="520" cy="135" rx="6" ry="8" fill="none" stroke="#383840" stroke-width="1.5"/>
  <ellipse cx="538" cy="135" rx="6" ry="8" fill="none" stroke="#383840" stroke-width="1.5"/>
  <!-- Row 2 offset -->
  <ellipse cx="493" cy="151" rx="6" ry="8" fill="none" stroke="#383840" stroke-width="1.5"/>
  <ellipse cx="511" cy="151" rx="6" ry="8" fill="none" stroke="#383840" stroke-width="1.5"/>
  <ellipse cx="529" cy="151" rx="6" ry="8" fill="none" stroke="#383840" stroke-width="1.5"/>
  <!-- Row 3 -->
  <ellipse cx="484" cy="167" rx="6" ry="8" fill="none" stroke="#383840" stroke-width="1.5"/>
  <ellipse cx="502" cy="167" rx="6" ry="8" fill="none" stroke="#383840" stroke-width="1.5"/>
  <ellipse cx="520" cy="167" rx="6" ry="8" fill="none" stroke="#383840" stroke-width="1.5"/>
  <ellipse cx="538" cy="167" rx="6" ry="8" fill="none" stroke="#383840" stroke-width="1.5"/>
  <!-- Row 4 offset -->
  <ellipse cx="493" cy="183" rx="6" ry="8" fill="none" stroke="#383840" stroke-width="1.5"/>
  <ellipse cx="511" cy="183" rx="6" ry="8" fill="none" stroke="#383840" stroke-width="1.5"/>
  <ellipse cx="529" cy="183" rx="6" ry="8" fill="none" stroke="#383840" stroke-width="1.5"/>
  <!-- Row 5 -->
  <ellipse cx="484" cy="199" rx="6" ry="8" fill="none" stroke="#383840" stroke-width="1.5"/>
  <ellipse cx="502" cy="199" rx="6" ry="8" fill="none" stroke="#383840" stroke-width="1.5"/>
  <ellipse cx="520" cy="199" rx="6" ry="8" fill="none" stroke="#383840" stroke-width="1.5"/>
  <ellipse cx="538" cy="199" rx="6" ry="8" fill="none" stroke="#383840" stroke-width="1.5"/>
  <!-- Row 6 offset -->
  <ellipse cx="493" cy="215" rx="6" ry="8" fill="none" stroke="#383840" stroke-width="1.5"/>
  <ellipse cx="511" cy="215" rx="6" ry="8" fill="none" stroke="#383840" stroke-width="1.5"/>
  <ellipse cx="529" cy="215" rx="6" ry="8" fill="none" stroke="#383840" stroke-width="1.5"/>
  <!-- Row 7 -->
  <ellipse cx="484" cy="231" rx="6" ry="8" fill="none" stroke="#383840" stroke-width="1.5"/>
  <ellipse cx="502" cy="231" rx="6" ry="8" fill="none" stroke="#383840" stroke-width="1.5"/>
  <ellipse cx="520" cy="231" rx="6" ry="8" fill="none" stroke="#383840" stroke-width="1.5"/>
  <ellipse cx="538" cy="231" rx="6" ry="8" fill="none" stroke="#383840" stroke-width="1.5"/>
  <!-- Row 8 offset -->
  <ellipse cx="493" cy="247" rx="6" ry="8" fill="none" stroke="#383840" stroke-width="1.5"/>
  <ellipse cx="511" cy="247" rx="6" ry="8" fill="none" stroke="#383840" stroke-width="1.5"/>
  <ellipse cx="529" cy="247" rx="6" ry="8" fill="none" stroke="#383840" stroke-width="1.5"/>

  <!-- Mac Pro wheels -->
  <circle cx="476" cy="288" r="7" fill="#1c1c1e" stroke="#383840" stroke-width="1.5"/>
  <circle cx="476" cy="288" r="3" fill="#252528"/>
  <circle cx="540" cy="288" r="7" fill="#1c1c1e" stroke="#383840" stroke-width="1.5"/>
  <circle cx="540" cy="288" r="3" fill="#252528"/>

  <!-- ===== Desk surface ===== -->
  <rect x="30" y="298" width="560" height="14" rx="6" fill="#1e2433"/>
  <rect x="30" y="298" width="560" height="3" rx="2" fill="#2a3450" opacity="0.6"/>

  <!-- ===== Magic Keyboard ===== -->
  <rect x="148" y="312" width="200" height="46" rx="7" fill="#1c1c1e"/>
  <rect x="154" y="318" width="188" height="34" rx="5" fill="#111114"/>
  <!-- Key row 1 -->
  <rect x="158" y="322" width="10" height="7" rx="2" fill="#2a2a2e"/>
  <rect x="171" y="322" width="10" height="7" rx="2" fill="#2a2a2e"/>
  <rect x="184" y="322" width="10" height="7" rx="2" fill="#2a2a2e"/>
  <rect x="197" y="322" width="10" height="7" rx="2" fill="#2a2a2e"/>
  <rect x="210" y="322" width="10" height="7" rx="2" fill="#2a2a2e"/>
  <rect x="223" y="322" width="10" height="7" rx="2" fill="#2a2a2e"/>
  <rect x="236" y="322" width="10" height="7" rx="2" fill="#2a2a2e"/>
  <rect x="249" y="322" width="10" height="7" rx="2" fill="#2a2a2e"/>
  <rect x="262" y="322" width="10" height="7" rx="2" fill="#2a2a2e"/>
  <rect x="275" y="322" width="10" height="7" rx="2" fill="#2a2a2e"/>
  <rect x="288" y="322" width="10" height="7" rx="2" fill="#2a2a2e"/>
  <rect x="301" y="322" width="18" height="7" rx="2" fill="#2a2a2e"/>
  <!-- Key row 2 -->
  <rect x="158" y="332" width="15" height="7" rx="2" fill="#2a2a2e"/>
  <rect x="176" y="332" width="10" height="7" rx="2" fill="#2a2a2e"/>
  <rect x="189" y="332" width="10" height="7" rx="2" fill="#2a2a2e"/>
  <rect x="202" y="332" width="10" height="7" rx="2" fill="#2a2a2e"/>
  <rect x="215" y="332" width="10" height="7" rx="2" fill="#2a2a2e"/>
  <rect x="228" y="332" width="10" height="7" rx="2" fill="#2a2a2e"/>
  <rect x="241" y="332" width="10" height="7" rx="2" fill="#2a2a2e"/>
  <rect x="254" y="332" width="10" height="7" rx="2" fill="#2a2a2e"/>
  <rect x="267" y="332" width="10" height="7" rx="2" fill="#2a2a2e"/>
  <rect x="280" y="332" width="10" height="7" rx="2" fill="#2a2a2e"/>
  <rect x="293" y="332" width="26" height="7" rx="2" fill="#2a2a2e"/>
  <!-- Spacebar row -->
  <rect x="158" y="342" width="11" height="7" rx="2" fill="#2a2a2e"/>
  <rect x="172" y="342" width="11" height="7" rx="2" fill="#2a2a2e"/>
  <rect x="186" y="342" width="86" height="7" rx="2" fill="#2a2a2e"/>
  <rect x="275" y="342" width="11" height="7" rx="2" fill="#2a2a2e"/>
  <rect x="289" y="342" width="11" height="7" rx="2" fill="#2a2a2e"/>
  <rect x="303" y="342" width="11" height="7" rx="2" fill="#2a2a2e"/>
  <rect x="317" y="342" width="11" height="7" rx="2" fill="#2a2a2e"/>

  <!-- ===== Magic Mouse (to the right of keyboard) ===== -->
  <ellipse cx="375" cy="333" rx="27" ry="21" fill="#1c1c1e"/>
  <ellipse cx="375" cy="327" rx="23" ry="15" fill="#111114"/>
  <line x1="375" y1="316" x2="375" y2="342" stroke="#2a2a2e" stroke-width="1.5"/>
  <rect x="372" y="352" width="6" height="5" rx="1" fill="#2a2a2e"/>

  <!-- ===== Coffee Mug (bigger, proper mug shape) ===== -->
  <!-- Mug body -->
  <rect x="58" y="252" width="56" height="50" rx="8" fill="#1c1c1e"/>
  <!-- Coffee surface -->
  <rect x="63" y="257" width="46" height="14" rx="3" fill="#4a2c1a" opacity="0.95"/>
  <!-- Mug handle -->
  <path d="M114 263 Q132 263 132 277 Q132 291 114 291" stroke="#252528" stroke-width="5" fill="none" stroke-linecap="round"/>
  <path d="M114 265 Q129 265 129 277 Q129 289 114 289" stroke="#383840" stroke-width="2.5" fill="none" stroke-linecap="round"/>
  <!-- Mug base rim -->
  <rect x="56" y="298" width="60" height="6" rx="3" fill="#252528"/>
  <!-- Steam -->
  <path d="M74 248 Q77 238 74 229" stroke="#4a7a9b" stroke-width="2.5" stroke-linecap="round" fill="none" opacity="0.55"/>
  <path d="M86 245 Q89 234 86 224" stroke="#4a7a9b" stroke-width="2.5" stroke-linecap="round" fill="none" opacity="0.55"/>
  <path d="M98 248 Q101 238 98 229" stroke="#4a7a9b" stroke-width="2.5" stroke-linecap="round" fill="none" opacity="0.55"/>

  <!-- ===== AirPods Max hanging below desk edge (right side, near Mac Pro) ===== -->
  <!-- Left ear cup -->
  <ellipse cx="500" cy="378" rx="22" ry="26" fill="#1c1c1e"/>
  <ellipse cx="500" cy="378" rx="16" ry="20" fill="#111114"/>
  <ellipse cx="500" cy="378" rx="10" ry="13" fill="#1c1c1e"/>
  <!-- Right ear cup -->
  <ellipse cx="576" cy="378" rx="22" ry="26" fill="#1c1c1e"/>
  <ellipse cx="576" cy="378" rx="16" ry="20" fill="#111114"/>
  <ellipse cx="576" cy="378" rx="10" ry="13" fill="#1c1c1e"/>
  <!-- Headband — curves up and over the desk edge -->
  <path d="M500 352 Q500 316 538 312 Q576 316 576 352" stroke="#2a2a2e" stroke-width="10" fill="none" stroke-linecap="round"/>
  <path d="M500 352 Q500 318 538 314 Q576 318 576 352" stroke="#383840" stroke-width="6" fill="none" stroke-linecap="round"/>
  <!-- Headband mesh texture line -->
  <path d="M500 352 Q500 320 538 316 Q576 320 576 352" stroke="#252528" stroke-width="2" fill="none" stroke-linecap="round" stroke-dasharray="4 4"/>
  <!-- Desk edge they hang from -->
  <rect x="480" y="306" width="116" height="6" rx="3" fill="#1e2433"/>

</svg>
