<svg xmlns="http://www.w3.org/2000/svg" viewBox="0 0 820 500" fill="none">

  <defs>
    <radialGradient id="hs8ConeGrad" cx="40%" cy="40%" r="60%">
      <stop offset="0%" stop-color="#ffffff" stop-opacity="0.3"/>
      <stop offset="100%" stop-color="#000000" stop-opacity="0.5"/>
    </radialGradient>
  </defs>

  <!-- =====================================================
       LAYOUT (all centered in 820px viewBox)
       Left HS8:   x=75–147   cx=111
       Coffee mug: x=157–213  (on desk, beside HS8)
       XDR:        x=227–557  cx=392
       Mac Pro:    x=567–659  cx=613
       Right HS8:  x=669–741  cx=705
       Desk:       y=298
       Keyboard:   x=335–535  cx=435
       Mouse:      cx=555
       AirPods:    under Mac Pro, cx≈590–660
  ===================================================== -->

  <!-- ===== Left Yamaha HS8 ===== -->
  <rect x="75" y="158" width="72" height="140" rx="6" fill="#111114"/>
  <rect x="79" y="162" width="64" height="132" rx="4" fill="#1a1a1e"/>
  <!-- Woofer -->
  <circle cx="111" cy="248" r="27" fill="#0d0d0f" stroke="#2a2a2e" stroke-width="2"/>
  <circle cx="111" cy="248" r="23" fill="#1c1c1e"/>
  <circle cx="111" cy="248" r="19" fill="#d8d8d8"/>
  <circle cx="111" cy="248" r="19" fill="url(#hs8ConeGrad)" opacity="0.6"/>
  <circle cx="111" cy="248" r="5.5" fill="#a0a0a0"/>
  <circle cx="111" cy="248" r="3" fill="#888"/>
  <circle cx="111" cy="248" r="9" fill="none" stroke="#999" stroke-width="1" opacity="0.5"/>
  <!-- Tweeter -->
  <rect x="103" y="172" width="16" height="16" rx="3" fill="#0d0d0f"/>
  <circle cx="111" cy="180" r="6" fill="#1a1a1e" stroke="#2a2a2e" stroke-width="1"/>
  <circle cx="111" cy="180" r="3.5" fill="#c8c8c8"/>
  <circle cx="111" cy="180" r="2" fill="#a0a0a0"/>
  <!-- Badge -->
  <rect x="87" y="196" width="22" height="7" rx="2" fill="#0d0d0f"/>
  <rect x="89" y="197" width="18" height="5" rx="1" fill="#222228"/>
  <!-- Port slot -->
  <rect x="87" y="287" width="38" height="5" rx="2" fill="#0a0a0c"/>
  <!-- Base -->
  <rect x="75" y="294" width="72" height="8" rx="3" fill="#0d0d0f"/>
  <!-- Sound waves rightward -->
  <path d="M147 220 Q161 232 161 248 Q161 264 147 276" stroke="#64b5f6" stroke-width="1.8" fill="none" stroke-linecap="round" opacity="0.55"/>
  <path d="M147 208 Q168 224 168 248 Q168 272 147 288" stroke="#64b5f6" stroke-width="1.4" fill="none" stroke-linecap="round" opacity="0.35"/>
  <path d="M147 196 Q175 216 175 248 Q175 280 147 300" stroke="#64b5f6" stroke-width="1.0" fill="none" stroke-linecap="round" opacity="0.18"/>

  <!-- ===== Pro Display XDR ===== -->
  <rect x="227" y="28" width="330" height="222" rx="16" fill="#1c1c1e"/>
  <rect x="238" y="39" width="308" height="202" rx="9" fill="#0d1117"/>
  <rect x="239" y="40" width="306" height="200" rx="8" fill="none" stroke="#2a2a2e" stroke-width="1"/>
  <!-- Line numbers -->
  <rect x="253" y="56" width="14" height="5" rx="2" fill="#3a3a4a" opacity="0.5"/>
  <rect x="253" y="68" width="14" height="5" rx="2" fill="#3a3a4a" opacity="0.5"/>
  <rect x="253" y="80" width="14" height="5" rx="2" fill="#3a3a4a" opacity="0.5"/>
  <rect x="253" y="92" width="14" height="5" rx="2" fill="#3a3a4a" opacity="0.5"/>
  <rect x="253" y="104" width="14" height="5" rx="2" fill="#3a3a4a" opacity="0.5"/>
  <rect x="253" y="116" width="14" height="5" rx="2" fill="#3a3a4a" opacity="0.5"/>
  <rect x="253" y="128" width="14" height="5" rx="2" fill="#3a3a4a" opacity="0.5"/>
  <rect x="253" y="140" width="14" height="5" rx="2" fill="#3a3a4a" opacity="0.5"/>
  <rect x="253" y="152" width="14" height="5" rx="2" fill="#3a3a4a" opacity="0.5"/>
  <rect x="253" y="164" width="14" height="5" rx="2" fill="#3a3a4a" opacity="0.5"/>
  <rect x="253" y="176" width="14" height="5" rx="2" fill="#3a3a4a" opacity="0.5"/>
  <rect x="253" y="188" width="14" height="5" rx="2" fill="#3a3a4a" opacity="0.5"/>
  <rect x="253" y="200" width="14" height="5" rx="2" fill="#3a3a4a" opacity="0.5"/>
  <rect x="253" y="212" width="14" height="5" rx="2" fill="#3a3a4a" opacity="0.5"/>
  <!-- Code tokens -->
  <rect x="274" y="56" width="48" height="5" rx="2" fill="#ff7b72"/>
  <rect x="325" y="56" width="26" height="5" rx="2" fill="#d2a8ff"/>
  <rect x="354" y="56" width="20" height="5" rx="2" fill="#ffa657"/>
  <rect x="282" y="68" width="36" height="5" rx="2" fill="#79c0ff"/>
  <rect x="321" y="68" width="55" height="5" rx="2" fill="#a5f3c4"/>
  <rect x="379" y="68" width="28" height="5" rx="2" fill="#ffa657"/>
  <rect x="282" y="80" width="62" height="5" rx="2" fill="#79c0ff"/>
  <rect x="347" y="80" width="32" height="5" rx="2" fill="#ff7b72"/>
  <rect x="290" y="92" width="44" height="5" rx="2" fill="#a5f3c4"/>
  <rect x="337" y="92" width="50" height="5" rx="2" fill="#d2a8ff"/>
  <rect x="290" y="104" width="78" height="5" rx="2" fill="#79c0ff"/>
  <rect x="371" y="104" width="22" height="5" rx="2" fill="#ffa657"/>
  <rect x="282" y="116" width="52" height="5" rx="2" fill="#ff7b72"/>
  <rect x="337" y="116" width="38" height="5" rx="2" fill="#a5f3c4"/>
  <rect x="290" y="128" width="85" height="5" rx="2" fill="#79c0ff"/>
  <rect x="282" y="140" width="42" height="5" rx="2" fill="#d2a8ff"/>
  <rect x="327" y="140" width="60" height="5" rx="2" fill="#ffa657"/>
  <rect x="290" y="152" width="55" height="5" rx="2" fill="#a5f3c4"/>
  <rect x="348" y="152" width="35" height="5" rx="2" fill="#ff7b72"/>
  <rect x="282" y="164" width="70" height="5" rx="2" fill="#79c0ff"/>
  <rect x="355" y="164" width="40" height="5" rx="2" fill="#d2a8ff"/>
  <rect x="290" y="176" width="38" height="5" rx="2" fill="#ffa657"/>
  <rect x="331" y="176" width="55" height="5" rx="2" fill="#a5f3c4"/>
  <rect x="282" y="188" width="80" height="5" rx="2" fill="#79c0ff"/>
  <rect x="290" y="200" width="48" height="5" rx="2" fill="#ff7b72"/>
  <rect x="341" y="200" width="32" height="5" rx="2" fill="#d2a8ff"/>
  <rect x="282" y="212" width="58" height="5" rx="2" fill="#a5f3c4"/>
  <!-- Cursor -->
  <rect x="343" y="212" width="7" height="9" rx="1" fill="#58a6ff" opacity="0.9"/>
  <!-- XDR stand arm -->
  <rect x="377" y="250" width="20" height="36" rx="3" fill="#2a2a2e"/>
  <!-- Stand base -->
  <rect x="347" y="282" width="80" height="10" rx="5" fill="#1c1c1e"/>
  <ellipse cx="387" cy="292" rx="40" ry="6" fill="#2a2a2e" opacity="0.4"/>

  <!-- ===== Mac Pro 2019 Tower ===== -->
  <rect x="567" y="88" width="92" height="200" rx="14" fill="#1c1c1e"/>
  <rect x="567" y="88" width="92" height="22" rx="12" fill="#252528"/>
  <rect x="567" y="100" width="92" height="10" fill="#252528"/>
  <rect x="567" y="266" width="92" height="22" rx="12" fill="#252528"/>
  <rect x="567" y="266" width="92" height="10" fill="#252528"/>
  <!-- Handle -->
  <path d="M595 88 Q595 65 613 65 Q631 65 631 88" stroke="#3a3a3e" stroke-width="7" fill="none" stroke-linecap="round"/>
  <path d="M595 88 Q595 67 613 67 Q631 67 631 88" stroke="#555560" stroke-width="4" fill="none" stroke-linecap="round"/>
  <!-- Cheese grater -->
  <ellipse cx="589" cy="128" rx="6" ry="8" fill="none" stroke="#383840" stroke-width="1.5"/>
  <ellipse cx="607" cy="128" rx="6" ry="8" fill="none" stroke="#383840" stroke-width="1.5"/>
  <ellipse cx="625" cy="128" rx="6" ry="8" fill="none" stroke="#383840" stroke-width="1.5"/>
  <ellipse cx="643" cy="128" rx="6" ry="8" fill="none" stroke="#383840" stroke-width="1.5"/>
  <ellipse cx="598" cy="144" rx="6" ry="8" fill="none" stroke="#383840" stroke-width="1.5"/>
  <ellipse cx="616" cy="144" rx="6" ry="8" fill="none" stroke="#383840" stroke-width="1.5"/>
  <ellipse cx="634" cy="144" rx="6" ry="8" fill="none" stroke="#383840" stroke-width="1.5"/>
  <ellipse cx="589" cy="160" rx="6" ry="8" fill="none" stroke="#383840" stroke-width="1.5"/>
  <ellipse cx="607" cy="160" rx="6" ry="8" fill="none" stroke="#383840" stroke-width="1.5"/>
  <ellipse cx="625" cy="160" rx="6" ry="8" fill="none" stroke="#383840" stroke-width="1.5"/>
  <ellipse cx="643" cy="160" rx="6" ry="8" fill="none" stroke="#383840" stroke-width="1.5"/>
  <ellipse cx="598" cy="176" rx="6" ry="8" fill="none" stroke="#383840" stroke-width="1.5"/>
  <ellipse cx="616" cy="176" rx="6" ry="8" fill="none" stroke="#383840" stroke-width="1.5"/>
  <ellipse cx="634" cy="176" rx="6" ry="8" fill="none" stroke="#383840" stroke-width="1.5"/>
  <ellipse cx="589" cy="192" rx="6" ry="8" fill="none" stroke="#383840" stroke-width="1.5"/>
  <ellipse cx="607" cy="192" rx="6" ry="8" fill="none" stroke="#383840" stroke-width="1.5"/>
  <ellipse cx="625" cy="192" rx="6" ry="8" fill="none" stroke="#383840" stroke-width="1.5"/>
  <ellipse cx="643" cy="192" rx="6" ry="8" fill="none" stroke="#383840" stroke-width="1.5"/>
  <ellipse cx="598" cy="208" rx="6" ry="8" fill="none" stroke="#383840" stroke-width="1.5"/>
  <ellipse cx="616" cy="208" rx="6" ry="8" fill="none" stroke="#383840" stroke-width="1.5"/>
  <ellipse cx="634" cy="208" rx="6" ry="8" fill="none" stroke="#383840" stroke-width="1.5"/>
  <ellipse cx="589" cy="224" rx="6" ry="8" fill="none" stroke="#383840" stroke-width="1.5"/>
  <ellipse cx="607" cy="224" rx="6" ry="8" fill="none" stroke="#383840" stroke-width="1.5"/>
  <ellipse cx="625" cy="224" rx="6" ry="8" fill="none" stroke="#383840" stroke-width="1.5"/>
  <ellipse cx="643" cy="224" rx="6" ry="8" fill="none" stroke="#383840" stroke-width="1.5"/>
  <ellipse cx="598" cy="240" rx="6" ry="8" fill="none" stroke="#383840" stroke-width="1.5"/>
  <ellipse cx="616" cy="240" rx="6" ry="8" fill="none" stroke="#383840" stroke-width="1.5"/>
  <ellipse cx="634" cy="240" rx="6" ry="8" fill="none" stroke="#383840" stroke-width="1.5"/>
  <!-- Wheels -->
  <circle cx="581" cy="298" r="7" fill="#1c1c1e" stroke="#383840" stroke-width="1.5"/>
  <circle cx="581" cy="298" r="3" fill="#252528"/>
  <circle cx="645" cy="298" r="7" fill="#1c1c1e" stroke="#383840" stroke-width="1.5"/>
  <circle cx="645" cy="298" r="3" fill="#252528"/>

  <!-- ===== Right Yamaha HS8 ===== -->
  <rect x="669" y="158" width="72" height="140" rx="6" fill="#111114"/>
  <rect x="673" y="162" width="64" height="132" rx="4" fill="#1a1a1e"/>
  <!-- Woofer -->
  <circle cx="705" cy="248" r="27" fill="#0d0d0f" stroke="#2a2a2e" stroke-width="2"/>
  <circle cx="705" cy="248" r="23" fill="#1c1c1e"/>
  <circle cx="705" cy="248" r="19" fill="#d8d8d8"/>
  <circle cx="705" cy="248" r="19" fill="url(#hs8ConeGrad)" opacity="0.6"/>
  <circle cx="705" cy="248" r="5.5" fill="#a0a0a0"/>
  <circle cx="705" cy="248" r="3" fill="#888"/>
  <circle cx="705" cy="248" r="9" fill="none" stroke="#999" stroke-width="1" opacity="0.5"/>
  <!-- Tweeter -->
  <rect x="697" y="172" width="16" height="16" rx="3" fill="#0d0d0f"/>
  <circle cx="705" cy="180" r="6" fill="#1a1a1e" stroke="#2a2a2e" stroke-width="1"/>
  <circle cx="705" cy="180" r="3.5" fill="#c8c8c8"/>
  <circle cx="705" cy="180" r="2" fill="#a0a0a0"/>
  <!-- Badge -->
  <rect x="681" y="196" width="22" height="7" rx="2" fill="#0d0d0f"/>
  <rect x="683" y="197" width="18" height="5" rx="1" fill="#222228"/>
  <!-- Port slot -->
  <rect x="681" y="287" width="38" height="5" rx="2" fill="#0a0a0c"/>
  <!-- Base -->
  <rect x="669" y="294" width="72" height="8" rx="3" fill="#0d0d0f"/>
  <!-- Sound waves leftward -->
  <path d="M669 220 Q655 232 655 248 Q655 264 669 276" stroke="#64b5f6" stroke-width="1.8" fill="none" stroke-linecap="round" opacity="0.55"/>
  <path d="M669 208 Q648 224 648 248 Q648 272 669 288" stroke="#64b5f6" stroke-width="1.4" fill="none" stroke-linecap="round" opacity="0.35"/>
  <path d="M669 196 Q641 216 641 248 Q641 280 669 300" stroke="#64b5f6" stroke-width="1.0" fill="none" stroke-linecap="round" opacity="0.18"/>

  <!-- ===== Desk surface ===== -->
  <rect x="10" y="302" width="800" height="14" rx="6" fill="#1e2433"/>
  <rect x="10" y="302" width="800" height="3" rx="2" fill="#2a3450" opacity="0.6"/>

  <!-- ===== Coffee Mug — on desk between left HS8 and XDR ===== -->
  <rect x="157" y="252" width="50" height="50" rx="7" fill="#1c1c1e"/>
  <rect x="162" y="257" width="40" height="13" rx="3" fill="#4a2c1a" opacity="0.95"/>
  <path d="M207 263 Q222 263 222 276 Q222 289 207 289" stroke="#252528" stroke-width="5" fill="none" stroke-linecap="round"/>
  <path d="M207 265 Q219 265 219 276 Q219 287 207 287" stroke="#383840" stroke-width="2.5" fill="none" stroke-linecap="round"/>
  <rect x="155" y="298" width="54" height="6" rx="3" fill="#252528"/>
  <!-- Steam -->
  <path d="M170 248 Q173 238 170 229" stroke="#4a7a9b" stroke-width="2" stroke-linecap="round" fill="none" opacity="0.55"/>
  <path d="M181 245 Q184 235 181 225" stroke="#4a7a9b" stroke-width="2" stroke-linecap="round" fill="none" opacity="0.55"/>
  <path d="M192 248 Q195 238 192 229" stroke="#4a7a9b" stroke-width="2" stroke-linecap="round" fill="none" opacity="0.55"/>

  <!-- ===== Magic Keyboard — centered under XDR (cx=392), width=210 ===== -->
  <!-- group width = 210(kbd) + 8(gap) + 48(mouse) = 266; start = 392-133 = 259 -->
  <rect x="259" y="312" width="210" height="46" rx="7" fill="#1c1c1e"/>
  <rect x="265" y="318" width="198" height="34" rx="5" fill="#111114"/>
  <!-- Row 1 -->
  <rect x="269" y="322" width="10" height="7" rx="2" fill="#2a2a2e"/>
  <rect x="282" y="322" width="10" height="7" rx="2" fill="#2a2a2e"/>
  <rect x="295" y="322" width="10" height="7" rx="2" fill="#2a2a2e"/>
  <rect x="308" y="322" width="10" height="7" rx="2" fill="#2a2a2e"/>
  <rect x="321" y="322" width="10" height="7" rx="2" fill="#2a2a2e"/>
  <rect x="334" y="322" width="10" height="7" rx="2" fill="#2a2a2e"/>
  <rect x="347" y="322" width="10" height="7" rx="2" fill="#2a2a2e"/>
  <rect x="360" y="322" width="10" height="7" rx="2" fill="#2a2a2e"/>
  <rect x="373" y="322" width="10" height="7" rx="2" fill="#2a2a2e"/>
  <rect x="386" y="322" width="10" height="7" rx="2" fill="#2a2a2e"/>
  <rect x="399" y="322" width="10" height="7" rx="2" fill="#2a2a2e"/>
  <rect x="412" y="322" width="20" height="7" rx="2" fill="#2a2a2e"/>
  <!-- Row 2 -->
  <rect x="269" y="332" width="15" height="7" rx="2" fill="#2a2a2e"/>
  <rect x="287" y="332" width="10" height="7" rx="2" fill="#2a2a2e"/>
  <rect x="300" y="332" width="10" height="7" rx="2" fill="#2a2a2e"/>
  <rect x="313" y="332" width="10" height="7" rx="2" fill="#2a2a2e"/>
  <rect x="326" y="332" width="10" height="7" rx="2" fill="#2a2a2e"/>
  <rect x="339" y="332" width="10" height="7" rx="2" fill="#2a2a2e"/>
  <rect x="352" y="332" width="10" height="7" rx="2" fill="#2a2a2e"/>
  <rect x="365" y="332" width="10" height="7" rx="2" fill="#2a2a2e"/>
  <rect x="378" y="332" width="10" height="7" rx="2" fill="#2a2a2e"/>
  <rect x="391" y="332" width="10" height="7" rx="2" fill="#2a2a2e"/>
  <rect x="404" y="332" width="28" height="7" rx="2" fill="#2a2a2e"/>
  <!-- Spacebar row -->
  <rect x="269" y="342" width="12" height="7" rx="2" fill="#2a2a2e"/>
  <rect x="284" y="342" width="12" height="7" rx="2" fill="#2a2a2e"/>
  <rect x="299" y="342" width="92" height="7" rx="2" fill="#2a2a2e"/>
  <rect x="394" y="342" width="12" height="7" rx="2" fill="#2a2a2e"/>
  <rect x="409" y="342" width="12" height="7" rx="2" fill="#2a2a2e"/>
  <rect x="424" y="342" width="12" height="7" rx="2" fill="#2a2a2e"/>
  <rect x="439" y="342" width="12" height="7" rx="2" fill="#2a2a2e"/>

  <!-- ===== Magic Mouse — right of keyboard, small gap ===== -->
  <!-- keyboard ends x=469, mouse cx=469+8+24=501 -->
  <ellipse cx="501" cy="333" rx="24" ry="20" fill="#1c1c1e"/>
  <ellipse cx="501" cy="327" rx="20" ry="14" fill="#111114"/>
  <line x1="501" y1="317" x2="501" y2="341" stroke="#2a2a2e" stroke-width="1.5"/>
  <rect x="498" y="350" width="6" height="5" rx="1" fill="#2a2a2e"/>

  <!-- ===== AirPods Max — hanging below desk, under Mac Pro ===== -->
  <ellipse cx="590" cy="388" rx="22" ry="26" fill="#1c1c1e"/>
  <ellipse cx="590" cy="388" rx="16" ry="20" fill="#111114"/>
  <ellipse cx="590" cy="388" rx="10" ry="13" fill="#1c1c1e"/>
  <ellipse cx="652" cy="388" rx="22" ry="26" fill="#1c1c1e"/>
  <ellipse cx="652" cy="388" rx="16" ry="20" fill="#111114"/>
  <ellipse cx="652" cy="388" rx="10" ry="13" fill="#1c1c1e"/>
  <path d="M590 362 Q590 328 621 324 Q652 328 652 362" stroke="#2a2a2e" stroke-width="10" fill="none" stroke-linecap="round"/>
  <path d="M590 362 Q590 330 621 326 Q652 330 652 362" stroke="#383840" stroke-width="6" fill="none" stroke-linecap="round"/>
  <path d="M590 362 Q590 332 621 328 Q652 332 652 362" stroke="#252528" stroke-width="2" fill="none" stroke-linecap="round" stroke-dasharray="4 4"/>
  <!-- Desk edge -->
  <rect x="572" y="312" width="100" height="6" rx="3" fill="#1e2433"/>

</svg>
