<svg xmlns="http://www.w3.org/2000/svg" viewBox="0 0 820 520" fill="none">

  <!-- ===== Pro Display XDR ===== -->
  <!-- Monitor outer bezel (no camera notch — XDR has no camera) -->
  <rect x="110" y="30" width="330" height="220" rx="16" fill="#1c1c1e"/>
  <!-- Screen -->
  <rect x="121" y="41" width="308" height="200" rx="9" fill="#0d1117"/>
  <!-- Thin inner border -->
  <rect x="122" y="42" width="306" height="198" rx="8" fill="none" stroke="#2a2a2e" stroke-width="1"/>

  <!-- Code on screen — GitHub dark theme colors -->
  <!-- Line numbers col -->
  <rect x="136" y="58" width="14" height="5" rx="2" fill="#3a3a4a" opacity="0.5"/>
  <rect x="136" y="70" width="14" height="5" rx="2" fill="#3a3a4a" opacity="0.5"/>
  <rect x="136" y="82" width="14" height="5" rx="2" fill="#3a3a4a" opacity="0.5"/>
  <rect x="136" y="94" width="14" height="5" rx="2" fill="#3a3a4a" opacity="0.5"/>
  <rect x="136" y="106" width="14" height="5" rx="2" fill="#3a3a4a" opacity="0.5"/>
  <rect x="136" y="118" width="14" height="5" rx="2" fill="#3a3a4a" opacity="0.5"/>
  <rect x="136" y="130" width="14" height="5" rx="2" fill="#3a3a4a" opacity="0.5"/>
  <rect x="136" y="142" width="14" height="5" rx="2" fill="#3a3a4a" opacity="0.5"/>
  <rect x="136" y="154" width="14" height="5" rx="2" fill="#3a3a4a" opacity="0.5"/>
  <rect x="136" y="166" width="14" height="5" rx="2" fill="#3a3a4a" opacity="0.5"/>
  <rect x="136" y="178" width="14" height="5" rx="2" fill="#3a3a4a" opacity="0.5"/>
  <rect x="136" y="190" width="14" height="5" rx="2" fill="#3a3a4a" opacity="0.5"/>
  <rect x="136" y="202" width="14" height="5" rx="2" fill="#3a3a4a" opacity="0.5"/>
  <rect x="136" y="214" width="14" height="5" rx="2" fill="#3a3a4a" opacity="0.5"/>
  <!-- Code tokens -->
  <rect x="157" y="58" width="48" height="5" rx="2" fill="#ff7b72"/>
  <rect x="208" y="58" width="26" height="5" rx="2" fill="#d2a8ff"/>
  <rect x="237" y="58" width="20" height="5" rx="2" fill="#ffa657"/>
  <rect x="165" y="70" width="36" height="5" rx="2" fill="#79c0ff"/>
  <rect x="204" y="70" width="55" height="5" rx="2" fill="#a5f3c4"/>
  <rect x="262" y="70" width="28" height="5" rx="2" fill="#ffa657"/>
  <rect x="165" y="82" width="62" height="5" rx="2" fill="#79c0ff"/>
  <rect x="230" y="82" width="32" height="5" rx="2" fill="#ff7b72"/>
  <rect x="173" y="94" width="44" height="5" rx="2" fill="#a5f3c4"/>
  <rect x="220" y="94" width="50" height="5" rx="2" fill="#d2a8ff"/>
  <rect x="173" y="106" width="78" height="5" rx="2" fill="#79c0ff"/>
  <rect x="254" y="106" width="22" height="5" rx="2" fill="#ffa657"/>
  <rect x="165" y="118" width="52" height="5" rx="2" fill="#ff7b72"/>
  <rect x="220" y="118" width="38" height="5" rx="2" fill="#a5f3c4"/>
  <rect x="173" y="130" width="85" height="5" rx="2" fill="#79c0ff"/>
  <rect x="165" y="142" width="42" height="5" rx="2" fill="#d2a8ff"/>
  <rect x="210" y="142" width="60" height="5" rx="2" fill="#ffa657"/>
  <rect x="173" y="154" width="55" height="5" rx="2" fill="#a5f3c4"/>
  <rect x="231" y="154" width="35" height="5" rx="2" fill="#ff7b72"/>
  <rect x="165" y="166" width="70" height="5" rx="2" fill="#79c0ff"/>
  <rect x="238" y="166" width="40" height="5" rx="2" fill="#d2a8ff"/>
  <rect x="173" y="178" width="38" height="5" rx="2" fill="#ffa657"/>
  <rect x="214" y="178" width="55" height="5" rx="2" fill="#a5f3c4"/>
  <rect x="165" y="190" width="80" height="5" rx="2" fill="#79c0ff"/>
  <rect x="173" y="202" width="48" height="5" rx="2" fill="#ff7b72"/>
  <rect x="224" y="202" width="32" height="5" rx="2" fill="#d2a8ff"/>
  <rect x="165" y="214" width="58" height="5" rx="2" fill="#a5f3c4"/>
  <!-- cursor blink -->
  <rect x="226" y="214" width="7" height="9" rx="1" fill="#58a6ff" opacity="0.9"/>

  <!-- XDR stand arm -->
  <rect x="258" y="250" width="20" height="36" rx="3" fill="#2a2a2e"/>
  <!-- Stand base -->
  <rect x="228" y="282" width="80" height="10" rx="5" fill="#1c1c1e"/>
  <ellipse cx="268" cy="292" rx="40" ry="6" fill="#2a2a2e" opacity="0.4"/>

  <!-- ===== Mac Pro 2019 Tower ===== -->
  <!-- Main body -->
  <rect x="582" y="95" width="92" height="190" rx="14" fill="#1c1c1e"/>
  <!-- Top rounded cap -->
  <rect x="582" y="95" width="92" height="22" rx="12" fill="#252528"/>
  <rect x="582" y="107" width="92" height="10" fill="#252528"/>
  <!-- Bottom rounded cap -->
  <rect x="582" y="263" width="92" height="22" rx="12" fill="#252528"/>
  <rect x="582" y="263" width="92" height="10" fill="#252528"/>

  <!-- Top handle — the iconic Mac Pro 2019 stainless steel handle -->
  <path d="M610 95 Q610 72 628 72 Q646 72 646 95" stroke="#3a3a3e" stroke-width="7" fill="none" stroke-linecap="round"/>
  <path d="M610 95 Q610 74 628 74 Q646 74 646 95" stroke="#555560" stroke-width="4" fill="none" stroke-linecap="round"/>

  <!-- Cheese grater oval pattern -->
  <!-- Row 1 -->
  <ellipse cx="604" cy="135" rx="6" ry="8" fill="none" stroke="#383840" stroke-width="1.5"/>
  <ellipse cx="622" cy="135" rx="6" ry="8" fill="none" stroke="#383840" stroke-width="1.5"/>
  <ellipse cx="640" cy="135" rx="6" ry="8" fill="none" stroke="#383840" stroke-width="1.5"/>
  <ellipse cx="658" cy="135" rx="6" ry="8" fill="none" stroke="#383840" stroke-width="1.5"/>
  <!-- Row 2 offset -->
  <ellipse cx="613" cy="151" rx="6" ry="8" fill="none" stroke="#383840" stroke-width="1.5"/>
  <ellipse cx="631" cy="151" rx="6" ry="8" fill="none" stroke="#383840" stroke-width="1.5"/>
  <ellipse cx="649" cy="151" rx="6" ry="8" fill="none" stroke="#383840" stroke-width="1.5"/>
  <!-- Row 3 -->
  <ellipse cx="604" cy="167" rx="6" ry="8" fill="none" stroke="#383840" stroke-width="1.5"/>
  <ellipse cx="622" cy="167" rx="6" ry="8" fill="none" stroke="#383840" stroke-width="1.5"/>
  <ellipse cx="640" cy="167" rx="6" ry="8" fill="none" stroke="#383840" stroke-width="1.5"/>
  <ellipse cx="658" cy="167" rx="6" ry="8" fill="none" stroke="#383840" stroke-width="1.5"/>
  <!-- Row 4 offset -->
  <ellipse cx="613" cy="183" rx="6" ry="8" fill="none" stroke="#383840" stroke-width="1.5"/>
  <ellipse cx="631" cy="183" rx="6" ry="8" fill="none" stroke="#383840" stroke-width="1.5"/>
  <ellipse cx="649" cy="183" rx="6" ry="8" fill="none" stroke="#383840" stroke-width="1.5"/>
  <!-- Row 5 -->
  <ellipse cx="604" cy="199" rx="6" ry="8" fill="none" stroke="#383840" stroke-width="1.5"/>
  <ellipse cx="622" cy="199" rx="6" ry="8" fill="none" stroke="#383840" stroke-width="1.5"/>
  <ellipse cx="640" cy="199" rx="6" ry="8" fill="none" stroke="#383840" stroke-width="1.5"/>
  <ellipse cx="658" cy="199" rx="6" ry="8" fill="none" stroke="#383840" stroke-width="1.5"/>
  <!-- Row 6 offset -->
  <ellipse cx="613" cy="215" rx="6" ry="8" fill="none" stroke="#383840" stroke-width="1.5"/>
  <ellipse cx="631" cy="215" rx="6" ry="8" fill="none" stroke="#383840" stroke-width="1.5"/>
  <ellipse cx="649" cy="215" rx="6" ry="8" fill="none" stroke="#383840" stroke-width="1.5"/>
  <!-- Row 7 -->
  <ellipse cx="604" cy="231" rx="6" ry="8" fill="none" stroke="#383840" stroke-width="1.5"/>
  <ellipse cx="622" cy="231" rx="6" ry="8" fill="none" stroke="#383840" stroke-width="1.5"/>
  <ellipse cx="640" cy="231" rx="6" ry="8" fill="none" stroke="#383840" stroke-width="1.5"/>
  <ellipse cx="658" cy="231" rx="6" ry="8" fill="none" stroke="#383840" stroke-width="1.5"/>
  <!-- Row 8 offset -->
  <ellipse cx="613" cy="247" rx="6" ry="8" fill="none" stroke="#383840" stroke-width="1.5"/>
  <ellipse cx="631" cy="247" rx="6" ry="8" fill="none" stroke="#383840" stroke-width="1.5"/>
  <ellipse cx="649" cy="247" rx="6" ry="8" fill="none" stroke="#383840" stroke-width="1.5"/>

  <!-- Mac Pro wheels -->
  <circle cx="596" cy="298" r="7" fill="#1c1c1e" stroke="#383840" stroke-width="1.5"/>
  <circle cx="596" cy="298" r="3" fill="#252528"/>
  <circle cx="660" cy="298" r="7" fill="#1c1c1e" stroke="#383840" stroke-width="1.5"/>
  <circle cx="660" cy="298" r="3" fill="#252528"/>

  <!-- ===== Desk surface ===== -->
  <rect x="10" y="308" width="800" height="14" rx="6" fill="#1e2433"/>
  <rect x="10" y="308" width="800" height="3" rx="2" fill="#2a3450" opacity="0.6"/>

  <!-- ===== Magic Keyboard ===== -->
  <rect x="148" y="312" width="200" height="46" rx="7" fill="#1c1c1e"/>
  <rect x="154" y="318" width="188" height="34" rx="5" fill="#111114"/>
  <!-- Key row 1 -->
  <rect x="158" y="322" width="10" height="7" rx="2" fill="#2a2a2e"/>
  <rect x="171" y="322" width="10" height="7" rx="2" fill="#2a2a2e"/>
  <rect x="184" y="322" width="10" height="7" rx="2" fill="#2a2a2e"/>
  <rect x="197" y="322" width="10" height="7" rx="2" fill="#2a2a2e"/>
  <rect x="210" y="322" width="10" height="7" rx="2" fill="#2a2a2e"/>
  <rect x="223" y="322" width="10" height="7" rx="2" fill="#2a2a2e"/>
  <rect x="236" y="322" width="10" height="7" rx="2" fill="#2a2a2e"/>
  <rect x="249" y="322" width="10" height="7" rx="2" fill="#2a2a2e"/>
  <rect x="262" y="322" width="10" height="7" rx="2" fill="#2a2a2e"/>
  <rect x="275" y="322" width="10" height="7" rx="2" fill="#2a2a2e"/>
  <rect x="288" y="322" width="10" height="7" rx="2" fill="#2a2a2e"/>
  <rect x="301" y="322" width="18" height="7" rx="2" fill="#2a2a2e"/>
  <!-- Key row 2 -->
  <rect x="158" y="332" width="15" height="7" rx="2" fill="#2a2a2e"/>
  <rect x="176" y="332" width="10" height="7" rx="2" fill="#2a2a2e"/>
  <rect x="189" y="332" width="10" height="7" rx="2" fill="#2a2a2e"/>
  <rect x="202" y="332" width="10" height="7" rx="2" fill="#2a2a2e"/>
  <rect x="215" y="332" width="10" height="7" rx="2" fill="#2a2a2e"/>
  <rect x="228" y="332" width="10" height="7" rx="2" fill="#2a2a2e"/>
  <rect x="241" y="332" width="10" height="7" rx="2" fill="#2a2a2e"/>
  <rect x="254" y="332" width="10" height="7" rx="2" fill="#2a2a2e"/>
  <rect x="267" y="332" width="10" height="7" rx="2" fill="#2a2a2e"/>
  <rect x="280" y="332" width="10" height="7" rx="2" fill="#2a2a2e"/>
  <rect x="293" y="332" width="26" height="7" rx="2" fill="#2a2a2e"/>
  <!-- Spacebar row -->
  <rect x="158" y="342" width="11" height="7" rx="2" fill="#2a2a2e"/>
  <rect x="172" y="342" width="11" height="7" rx="2" fill="#2a2a2e"/>
  <rect x="186" y="342" width="86" height="7" rx="2" fill="#2a2a2e"/>
  <rect x="275" y="342" width="11" height="7" rx="2" fill="#2a2a2e"/>
  <rect x="289" y="342" width="11" height="7" rx="2" fill="#2a2a2e"/>
  <rect x="303" y="342" width="11" height="7" rx="2" fill="#2a2a2e"/>
  <rect x="317" y="342" width="11" height="7" rx="2" fill="#2a2a2e"/>

  <!-- ===== Magic Mouse (to the right of keyboard) ===== -->
  <ellipse cx="375" cy="333" rx="27" ry="21" fill="#1c1c1e"/>
  <ellipse cx="375" cy="327" rx="23" ry="15" fill="#111114"/>
  <line x1="375" y1="316" x2="375" y2="342" stroke="#2a2a2e" stroke-width="1.5"/>
  <rect x="372" y="352" width="6" height="5" rx="1" fill="#2a2a2e"/>

  <!-- ===== Coffee Mug (bigger, proper mug shape) ===== -->
  <!-- Mug body -->
  <rect x="58" y="252" width="56" height="50" rx="8" fill="#1c1c1e"/>
  <!-- Coffee surface -->
  <rect x="63" y="257" width="46" height="14" rx="3" fill="#4a2c1a" opacity="0.95"/>
  <!-- Mug handle -->
  <path d="M114 263 Q132 263 132 277 Q132 291 114 291" stroke="#252528" stroke-width="5" fill="none" stroke-linecap="round"/>
  <path d="M114 265 Q129 265 129 277 Q129 289 114 289" stroke="#383840" stroke-width="2.5" fill="none" stroke-linecap="round"/>
  <!-- Mug base rim -->
  <rect x="56" y="298" width="60" height="6" rx="3" fill="#252528"/>
  <!-- Steam -->
  <path d="M74 248 Q77 238 74 229" stroke="#4a7a9b" stroke-width="2.5" stroke-linecap="round" fill="none" opacity="0.55"/>
  <path d="M86 245 Q89 234 86 224" stroke="#4a7a9b" stroke-width="2.5" stroke-linecap="round" fill="none" opacity="0.55"/>
  <path d="M98 248 Q101 238 98 229" stroke="#4a7a9b" stroke-width="2.5" stroke-linecap="round" fill="none" opacity="0.55"/>

  <!-- ===== AirPods Max hanging below desk edge (right side, near Mac Pro) ===== -->
  <!-- Left ear cup -->
  <ellipse cx="620" cy="388" rx="22" ry="26" fill="#1c1c1e"/>
  <ellipse cx="620" cy="388" rx="16" ry="20" fill="#111114"/>
  <ellipse cx="620" cy="388" rx="10" ry="13" fill="#1c1c1e"/>
  <!-- Right ear cup -->
  <ellipse cx="696" cy="388" rx="22" ry="26" fill="#1c1c1e"/>
  <ellipse cx="696" cy="388" rx="16" ry="20" fill="#111114"/>
  <ellipse cx="696" cy="388" rx="10" ry="13" fill="#1c1c1e"/>
  <!-- Headband -->
  <path d="M620 362 Q620 326 658 322 Q696 326 696 362" stroke="#2a2a2e" stroke-width="10" fill="none" stroke-linecap="round"/>
  <path d="M620 362 Q620 328 658 324 Q696 328 696 362" stroke="#383840" stroke-width="6" fill="none" stroke-linecap="round"/>
  <path d="M620 362 Q620 330 658 326 Q696 330 696 362" stroke="#252528" stroke-width="2" fill="none" stroke-linecap="round" stroke-dasharray="4 4"/>
  <!-- Desk edge they hang from -->
  <rect x="600" y="316" width="116" height="6" rx="3" fill="#1e2433"/>

  <!-- ===== Yamaha HS8 Studio Monitors ===== -->

  <!-- LEFT HS8 — sits on desk left side -->
  <!-- Cabinet body -->
  <rect x="18" y="168" width="72" height="136" rx="6" fill="#111114"/>
  <!-- Front baffle panel (slightly lighter) -->
  <rect x="22" y="172" width="64" height="128" rx="4" fill="#1a1a1e"/>
  <!-- 8" woofer — iconic white cone -->
  <!-- Surround ring -->
  <circle cx="54" cy="248" r="26" fill="#0d0d0f" stroke="#2a2a2e" stroke-width="2"/>
  <!-- Spider/cone outer -->
  <circle cx="54" cy="248" r="22" fill="#1c1c1e"/>
  <!-- White cone -->
  <circle cx="54" cy="248" r="18" fill="#d8d8d8"/>
  <!-- Cone shadow/depth -->
  <circle cx="54" cy="248" r="18" fill="url(#hs8ConeGrad)" opacity="0.6"/>
  <!-- Dust cap -->
  <circle cx="54" cy="248" r="5" fill="#a0a0a0"/>
  <circle cx="54" cy="248" r="3" fill="#888"/>
  <!-- Voice coil ring -->
  <circle cx="54" cy="248" r="8" fill="none" stroke="#999" stroke-width="1" opacity="0.5"/>
  <!-- 1" tweeter above woofer -->
  <!-- Tweeter housing -->
  <rect x="46" y="182" width="16" height="16" rx="3" fill="#0d0d0f"/>
  <circle cx="54" cy="190" r="6" fill="#1a1a1e" stroke="#2a2a2e" stroke-width="1"/>
  <circle cx="54" cy="190" r="3.5" fill="#c8c8c8"/>
  <circle cx="54" cy="190" r="2" fill="#a0a0a0"/>
  <!-- Yamaha "HS8" badge area (small label) -->
  <rect x="30" y="200" width="22" height="7" rx="2" fill="#0d0d0f"/>
  <rect x="32" y="201" width="18" height="5" rx="1" fill="#222228"/>
  <!-- Power LED (green) -->
  <circle cx="70" cy="290" r="2.5" fill="#00ff88" opacity="0.9"/>
  <!-- Rear port (front-facing slot at bottom) -->
  <rect x="30" y="292" width="38" height="5" rx="2" fill="#0a0a0c"/>
  <!-- Cabinet base -->
  <rect x="18" y="300" width="72" height="8" rx="3" fill="#0d0d0f"/>

  <!-- RIGHT HS8 — sits on desk right side, after Mac Pro -->
  <!-- Cabinet body -->
  <rect x="730" y="168" width="72" height="136" rx="6" fill="#111114"/>
  <!-- Front baffle panel -->
  <rect x="734" y="172" width="64" height="128" rx="4" fill="#1a1a1e"/>
  <!-- 8" woofer -->
  <circle cx="766" cy="248" r="26" fill="#0d0d0f" stroke="#2a2a2e" stroke-width="2"/>
  <circle cx="766" cy="248" r="22" fill="#1c1c1e"/>
  <circle cx="766" cy="248" r="18" fill="#d8d8d8"/>
  <circle cx="766" cy="248" r="18" fill="url(#hs8ConeGrad)" opacity="0.6"/>
  <circle cx="766" cy="248" r="5" fill="#a0a0a0"/>
  <circle cx="766" cy="248" r="3" fill="#888"/>
  <circle cx="766" cy="248" r="8" fill="none" stroke="#999" stroke-width="1" opacity="0.5"/>
  <!-- 1" tweeter -->
  <rect x="758" y="182" width="16" height="16" rx="3" fill="#0d0d0f"/>
  <circle cx="766" cy="190" r="6" fill="#1a1a1e" stroke="#2a2a2e" stroke-width="1"/>
  <circle cx="766" cy="190" r="3.5" fill="#c8c8c8"/>
  <circle cx="766" cy="190" r="2" fill="#a0a0a0"/>
  <!-- Badge -->
  <rect x="742" y="200" width="22" height="7" rx="2" fill="#0d0d0f"/>
  <rect x="744" y="201" width="18" height="5" rx="1" fill="#222228"/>
  <!-- Power LED -->
  <circle cx="782" cy="290" r="2.5" fill="#00ff88" opacity="0.9"/>
  <!-- Rear port slot -->
  <rect x="742" y="292" width="38" height="5" rx="2" fill="#0a0a0c"/>
  <!-- Cabinet base -->
  <rect x="730" y="300" width="72" height="8" rx="3" fill="#0d0d0f"/>

  <!-- Gradient def for woofer cone shading -->
  <defs>
    <radialGradient id="hs8ConeGrad" cx="40%" cy="40%" r="60%">
      <stop offset="0%" stop-color="#ffffff" stop-opacity="0.3"/>
      <stop offset="100%" stop-color="#000000" stop-opacity="0.5"/>
    </radialGradient>
  </defs>

</svg>
